<svg width="595" height="82" viewBox="0 0 595 82" fill="none" xmlns="http://www.w3.org/2000/svg">
<rect width="595" height="82" fill="#D37171"/>
<path d="M19.0469 57V22.875H29.5469C32.5469 22.875 35.2266 23.5547 37.5859 24.9141C39.9609 26.2578 41.8125 28.1797 43.1406 30.6797C44.4688 33.1641 45.1328 35.9922 45.1328 39.1641V40.7344C45.1328 43.9062 44.4766 46.7266 43.1641 49.1953C41.8672 51.6641 40.0312 53.5781 37.6562 54.9375C35.2812 56.2969 32.6016 56.9844 29.6172 57H19.0469ZM26.0781 28.5703V51.3516H29.4766C32.2266 51.3516 34.3281 50.4531 35.7812 48.6562C37.2344 46.8594 37.9766 44.2891 38.0078 40.9453V39.1406C38.0078 35.6719 37.2891 33.0469 35.8516 31.2656C34.4141 29.4688 32.3125 28.5703 29.5469 28.5703H26.0781ZM56.9688 57H50.1719V31.6406H56.9688V57ZM49.7734 25.0781C49.7734 24.0625 50.1094 23.2266 50.7812 22.5703C51.4688 21.9141 52.3984 21.5859 53.5703 21.5859C54.7266 21.5859 55.6484 21.9141 56.3359 22.5703C57.0234 23.2266 57.3672 24.0625 57.3672 25.0781C57.3672 26.1094 57.0156 26.9531 56.3125 27.6094C55.625 28.2656 54.7109 28.5938 53.5703 28.5938C52.4297 28.5938 51.5078 28.2656 50.8047 27.6094C50.1172 26.9531 49.7734 26.1094 49.7734 25.0781ZM76.8203 37.9922C75.8984 37.8672 75.0859 37.8047 74.3828 37.8047C71.8203 37.8047 70.1406 38.6719 69.3438 40.4062V57H62.5703V31.6406H68.9688L69.1562 34.6641C70.5156 32.3359 72.3984 31.1719 74.8047 31.1719C75.5547 31.1719 76.2578 31.2734 76.9141 31.4766L76.8203 37.9922ZM91.3047 57.4688C87.5859 57.4688 84.5547 56.3281 82.2109 54.0469C79.8828 51.7656 78.7188 48.7266 78.7188 44.9297V44.2734C78.7188 41.7266 79.2109 39.4531 80.1953 37.4531C81.1797 35.4375 82.5703 33.8906 84.3672 32.8125C86.1797 31.7188 88.2422 31.1719 90.5547 31.1719C94.0234 31.1719 96.75 32.2656 98.7344 34.4531C100.734 36.6406 101.734 39.7422 101.734 43.7578V46.5234H85.5859C85.8047 48.1797 86.4609 49.5078 87.5547 50.5078C88.6641 51.5078 90.0625 52.0078 91.75 52.0078C94.3594 52.0078 96.3984 51.0625 97.8672 49.1719L101.195 52.8984C100.18 54.3359 98.8047 55.4609 97.0703 56.2734C95.3359 57.0703 93.4141 57.4688 91.3047 57.4688ZM90.5312 36.6562C89.1875 36.6562 88.0938 37.1094 87.25 38.0156C86.4219 38.9219 85.8906 40.2188 85.6562 41.9062H95.0781V41.3672C95.0469 39.8672 94.6406 38.7109 93.8594 37.8984C93.0781 37.0703 91.9688 36.6562 90.5312 36.6562ZM113.711 25.4062V31.6406H118.047V36.6094H113.711V49.2656C113.711 50.2031 113.891 50.875 114.25 51.2812C114.609 51.6875 115.297 51.8906 116.312 51.8906C117.062 51.8906 117.727 51.8359 118.305 51.7266V56.8594C116.977 57.2656 115.609 57.4688 114.203 57.4688C109.453 57.4688 107.031 55.0703 106.938 50.2734V36.6094H103.234V31.6406H106.938V25.4062H113.711ZM120.062 44.0859C120.062 41.5703 120.547 39.3281 121.516 37.3594C122.484 35.3906 123.875 33.8672 125.688 32.7891C127.516 31.7109 129.633 31.1719 132.039 31.1719C135.461 31.1719 138.25 32.2188 140.406 34.3125C142.578 36.4062 143.789 39.25 144.039 42.8438L144.086 44.5781C144.086 48.4688 143 51.5938 140.828 53.9531C138.656 56.2969 135.742 57.4688 132.086 57.4688C128.43 57.4688 125.508 56.2969 123.32 53.9531C121.148 51.6094 120.062 48.4219 120.062 44.3906V44.0859ZM126.836 44.5781C126.836 46.9844 127.289 48.8281 128.195 50.1094C129.102 51.375 130.398 52.0078 132.086 52.0078C133.727 52.0078 135.008 51.3828 135.93 50.1328C136.852 48.8672 137.312 46.8516 137.312 44.0859C137.312 41.7266 136.852 39.8984 135.93 38.6016C135.008 37.3047 133.711 36.6562 132.039 36.6562C130.383 36.6562 129.102 37.3047 128.195 38.6016C127.289 39.8828 126.836 41.875 126.836 44.5781ZM133.375 21H140.758L134.266 28.2656H128.758L133.375 21ZM162.508 37.9922C161.586 37.8672 160.773 37.8047 160.07 37.8047C157.508 37.8047 155.828 38.6719 155.031 40.4062V57H148.258V31.6406H154.656L154.844 34.6641C156.203 32.3359 158.086 31.1719 160.492 31.1719C161.242 31.1719 161.945 31.2734 162.602 31.4766L162.508 37.9922ZM172.938 57H166.141V31.6406H172.938V57ZM165.742 25.0781C165.742 24.0625 166.078 23.2266 166.75 22.5703C167.438 21.9141 168.367 21.5859 169.539 21.5859C170.695 21.5859 171.617 21.9141 172.305 22.5703C172.992 23.2266 173.336 24.0625 173.336 25.0781C173.336 26.1094 172.984 26.9531 172.281 27.6094C171.594 28.2656 170.68 28.5938 169.539 28.5938C168.398 28.5938 167.477 28.2656 166.773 27.6094C166.086 26.9531 165.742 26.1094 165.742 25.0781ZM177.484 44.0859C177.484 41.5703 177.969 39.3281 178.938 37.3594C179.906 35.3906 181.297 33.8672 183.109 32.7891C184.938 31.7109 187.055 31.1719 189.461 31.1719C192.883 31.1719 195.672 32.2188 197.828 34.3125C200 36.4062 201.211 39.25 201.461 42.8438L201.508 44.5781C201.508 48.4688 200.422 51.5938 198.25 53.9531C196.078 56.2969 193.164 57.4688 189.508 57.4688C185.852 57.4688 182.93 56.2969 180.742 53.9531C178.57 51.6094 177.484 48.4219 177.484 44.3906V44.0859ZM184.258 44.5781C184.258 46.9844 184.711 48.8281 185.617 50.1094C186.523 51.375 187.82 52.0078 189.508 52.0078C191.148 52.0078 192.43 51.3828 193.352 50.1328C194.273 48.8672 194.734 46.8516 194.734 44.0859C194.734 41.7266 194.273 39.8984 193.352 38.6016C192.43 37.3047 191.133 36.6562 189.461 36.6562C187.805 36.6562 186.523 37.3047 185.617 38.6016C184.711 39.8828 184.258 41.875 184.258 44.5781ZM219.414 49.9922C219.414 49.1641 219 48.5156 218.172 48.0469C217.359 47.5625 216.047 47.1328 214.234 46.7578C208.203 45.4922 205.188 42.9297 205.188 39.0703C205.188 36.8203 206.117 34.9453 207.977 33.4453C209.852 31.9297 212.297 31.1719 215.312 31.1719C218.531 31.1719 221.102 31.9297 223.023 33.4453C224.961 34.9609 225.93 36.9297 225.93 39.3516H219.156C219.156 38.3828 218.844 37.5859 218.219 36.9609C217.594 36.3203 216.617 36 215.289 36C214.148 36 213.266 36.2578 212.641 36.7734C212.016 37.2891 211.703 37.9453 211.703 38.7422C211.703 39.4922 212.055 40.1016 212.758 40.5703C213.477 41.0234 214.68 41.4219 216.367 41.7656C218.055 42.0938 219.477 42.4688 220.633 42.8906C224.211 44.2031 226 46.4766 226 49.7109C226 52.0234 225.008 53.8984 223.023 55.3359C221.039 56.7578 218.477 57.4688 215.336 57.4688C213.211 57.4688 211.32 57.0938 209.664 56.3438C208.023 55.5781 206.734 54.5391 205.797 53.2266C204.859 51.8984 204.391 50.4688 204.391 48.9375H210.812C210.875 50.1406 211.32 51.0625 212.148 51.7031C212.977 52.3438 214.086 52.6641 215.477 52.6641C216.773 52.6641 217.75 52.4219 218.406 51.9375C219.078 51.4375 219.414 50.7891 219.414 49.9922ZM241.281 44.1328C241.281 40.1797 242.164 37.0312 243.93 34.6875C245.711 32.3438 248.141 31.1719 251.219 31.1719C253.688 31.1719 255.727 32.0938 257.336 33.9375V21H264.133V57H258.016L257.688 54.3047C256 56.4141 253.828 57.4688 251.172 57.4688C248.188 57.4688 245.789 56.2969 243.977 53.9531C242.18 51.5938 241.281 48.3203 241.281 44.1328ZM248.055 44.625C248.055 47 248.469 48.8203 249.297 50.0859C250.125 51.3516 251.328 51.9844 252.906 51.9844C255 51.9844 256.477 51.1016 257.336 49.3359V39.3281C256.492 37.5625 255.031 36.6797 252.953 36.6797C249.688 36.6797 248.055 39.3281 248.055 44.625ZM268.328 44.0859C268.328 41.5703 268.812 39.3281 269.781 37.3594C270.75 35.3906 272.141 33.8672 273.953 32.7891C275.781 31.7109 277.898 31.1719 280.305 31.1719C283.727 31.1719 286.516 32.2188 288.672 34.3125C290.844 36.4062 292.055 39.25 292.305 42.8438L292.352 44.5781C292.352 48.4688 291.266 51.5938 289.094 53.9531C286.922 56.2969 284.008 57.4688 280.352 57.4688C276.695 57.4688 273.773 56.2969 271.586 53.9531C269.414 51.6094 268.328 48.4219 268.328 44.3906V44.0859ZM275.102 44.5781C275.102 46.9844 275.555 48.8281 276.461 50.1094C277.367 51.375 278.664 52.0078 280.352 52.0078C281.992 52.0078 283.273 51.3828 284.195 50.1328C285.117 48.8672 285.578 46.8516 285.578 44.0859C285.578 41.7266 285.117 39.8984 284.195 38.6016C283.273 37.3047 281.977 36.6562 280.305 36.6562C278.648 36.6562 277.367 37.3047 276.461 38.6016C275.555 39.8828 275.102 41.875 275.102 44.5781ZM331.305 44.5547C331.305 48.4609 330.414 51.5938 328.633 53.9531C326.867 56.2969 324.477 57.4688 321.461 57.4688C318.898 57.4688 316.828 56.5781 315.25 54.7969V66.75H308.477V31.6406H314.758L314.992 34.125C316.633 32.1562 318.773 31.1719 321.414 31.1719C324.539 31.1719 326.969 32.3281 328.703 34.6406C330.438 36.9531 331.305 40.1406 331.305 44.2031V44.5547ZM324.531 44.0625C324.531 41.7031 324.109 39.8828 323.266 38.6016C322.438 37.3203 321.227 36.6797 319.633 36.6797C317.508 36.6797 316.047 37.4922 315.25 39.1172V49.5C316.078 51.1719 317.555 52.0078 319.68 52.0078C322.914 52.0078 324.531 49.3594 324.531 44.0625ZM349.773 37.9922C348.852 37.8672 348.039 37.8047 347.336 37.8047C344.773 37.8047 343.094 38.6719 342.297 40.4062V57H335.523V31.6406H341.922L342.109 34.6641C343.469 32.3359 345.352 31.1719 347.758 31.1719C348.508 31.1719 349.211 31.2734 349.867 31.4766L349.773 37.9922ZM351.156 44.0859C351.156 41.5703 351.641 39.3281 352.609 37.3594C353.578 35.3906 354.969 33.8672 356.781 32.7891C358.609 31.7109 360.727 31.1719 363.133 31.1719C366.555 31.1719 369.344 32.2188 371.5 34.3125C373.672 36.4062 374.883 39.25 375.133 42.8438L375.18 44.5781C375.18 48.4688 374.094 51.5938 371.922 53.9531C369.75 56.2969 366.836 57.4688 363.18 57.4688C359.523 57.4688 356.602 56.2969 354.414 53.9531C352.242 51.6094 351.156 48.4219 351.156 44.3906V44.0859ZM357.93 44.5781C357.93 46.9844 358.383 48.8281 359.289 50.1094C360.195 51.375 361.492 52.0078 363.18 52.0078C364.82 52.0078 366.102 51.3828 367.023 50.1328C367.945 48.8672 368.406 46.8516 368.406 44.0859C368.406 41.7266 367.945 39.8984 367.023 38.6016C366.102 37.3047 364.805 36.6562 363.133 36.6562C361.477 36.6562 360.195 37.3047 359.289 38.6016C358.383 39.8828 357.93 41.875 357.93 44.5781ZM386.523 31.6406V58.3828C386.523 61.1797 385.781 63.3516 384.297 64.8984C382.812 66.4609 380.672 67.2422 377.875 67.2422C376.703 67.2422 375.586 67.1094 374.523 66.8438V61.4766C375.336 61.6172 376.047 61.6875 376.656 61.6875C378.703 61.6875 379.727 60.6016 379.727 58.4297V31.6406H386.523ZM379.188 25.0781C379.188 24.0625 379.523 23.2266 380.195 22.5703C380.883 21.9141 381.812 21.5859 382.984 21.5859C384.156 21.5859 385.078 21.9141 385.75 22.5703C386.438 23.2266 386.781 24.0625 386.781 25.0781C386.781 26.1094 386.43 26.9531 385.727 27.6094C385.039 28.2656 384.125 28.5938 382.984 28.5938C381.844 28.5938 380.922 28.2656 380.219 27.6094C379.531 26.9531 379.188 26.1094 379.188 25.0781ZM403.492 57.4688C399.773 57.4688 396.742 56.3281 394.398 54.0469C392.07 51.7656 390.906 48.7266 390.906 44.9297V44.2734C390.906 41.7266 391.398 39.4531 392.383 37.4531C393.367 35.4375 394.758 33.8906 396.555 32.8125C398.367 31.7188 400.43 31.1719 402.742 31.1719C406.211 31.1719 408.938 32.2656 410.922 34.4531C412.922 36.6406 413.922 39.7422 413.922 43.7578V46.5234H397.773C397.992 48.1797 398.648 49.5078 399.742 50.5078C400.852 51.5078 402.25 52.0078 403.938 52.0078C406.547 52.0078 408.586 51.0625 410.055 49.1719L413.383 52.8984C412.367 54.3359 410.992 55.4609 409.258 56.2734C407.523 57.0703 405.602 57.4688 403.492 57.4688ZM402.719 36.6562C401.375 36.6562 400.281 37.1094 399.438 38.0156C398.609 38.9219 398.078 40.2188 397.844 41.9062H407.266V41.3672C407.234 39.8672 406.828 38.7109 406.047 37.8984C405.266 37.0703 404.156 36.6562 402.719 36.6562ZM425.898 25.4062V31.6406H430.234V36.6094H425.898V49.2656C425.898 50.2031 426.078 50.875 426.438 51.2812C426.797 51.6875 427.484 51.8906 428.5 51.8906C429.25 51.8906 429.914 51.8359 430.492 51.7266V56.8594C429.164 57.2656 427.797 57.4688 426.391 57.4688C421.641 57.4688 419.219 55.0703 419.125 50.2734V36.6094H415.422V31.6406H419.125V25.4062H425.898ZM432.25 44.0859C432.25 41.5703 432.734 39.3281 433.703 37.3594C434.672 35.3906 436.062 33.8672 437.875 32.7891C439.703 31.7109 441.82 31.1719 444.227 31.1719C447.648 31.1719 450.438 32.2188 452.594 34.3125C454.766 36.4062 455.977 39.25 456.227 42.8438L456.273 44.5781C456.273 48.4688 455.188 51.5938 453.016 53.9531C450.844 56.2969 447.93 57.4688 444.273 57.4688C440.617 57.4688 437.695 56.2969 435.508 53.9531C433.336 51.6094 432.25 48.4219 432.25 44.3906V44.0859ZM439.023 44.5781C439.023 46.9844 439.477 48.8281 440.383 50.1094C441.289 51.375 442.586 52.0078 444.273 52.0078C445.914 52.0078 447.195 51.3828 448.117 50.1328C449.039 48.8672 449.5 46.8516 449.5 44.0859C449.5 41.7266 449.039 39.8984 448.117 38.6016C447.195 37.3047 445.898 36.6562 444.227 36.6562C442.57 36.6562 441.289 37.3047 440.383 38.6016C439.477 39.8828 439.023 41.875 439.023 44.5781Z" fill="#F2F2F2"/>
<g clip-path="url(#clip0)">
<path d="M566.654 59.002C566.654 59.0057 566.654 59.0094 566.654 59.013L566.669 59.002C566.664 59.002 566.659 59.002 566.654 59.002Z" fill="#F2F2F2"/>
<path d="M566.668 59.0059C566.669 59.0051 566.654 59.0161 566.654 59.0161C566.659 59.0161 566.664 59.0161 566.668 59.0161C566.668 59.0132 566.668 59.0095 566.668 59.0059Z" fill="#F2F2F2"/>
<path d="M521.332 59.002L521.347 59.013C521.347 59.0094 521.347 59.0057 521.347 59.002C521.342 59.002 521.336 59.002 521.332 59.002Z" fill="#F2F2F2"/>
<path d="M566.604 16.9375C564.417 16.9375 562.229 16.9375 560.042 16.9375C560.042 19.125 560.042 20.5833 560.042 22.7708C562.229 22.7708 564.417 22.7708 566.604 22.7708C566.604 20.5832 566.604 19.125 566.604 16.9375Z" fill="#F2F2F2"/>
<path d="M572.437 35.1673C570.979 35.1673 568.792 35.1673 566.604 35.1673C566.604 32.9798 566.604 30.7923 566.604 28.6048C564.417 28.6048 562.229 28.6048 560.042 28.6048C560.042 27.1465 560.042 24.959 560.042 22.7715C557.854 22.7715 555.667 22.7715 553.479 22.7715C553.479 24.959 553.479 27.1465 553.479 28.6048C550.563 28.6048 547.167 28.6048 544 28.6048C541.083 28.6048 537.437 28.6048 534.521 28.6048C534.521 27.1465 534.521 24.959 534.521 22.7715C532.333 22.7715 530.146 22.7715 527.958 22.7715C527.958 24.959 527.958 27.1465 527.958 28.6048C525.771 28.6048 523.583 28.6048 521.396 28.6048C521.396 30.7923 521.396 32.9798 521.396 35.1673C519.208 35.1673 517.021 35.1673 515.562 35.1673C515.562 30.7923 515.562 27.1465 515.562 22.7715C513.375 22.7715 511.187 22.7715 509 22.7715C509 30.7923 509 38.8132 509 46.834C511.187 46.834 512.646 46.834 514.833 46.834C514.833 49.0214 514.833 51.209 514.833 53.3965C517.021 53.3965 519.208 53.3965 521.396 53.3965C521.396 54.7338 521.396 56.9139 521.396 59.0431C519.735 59.0665 518.16 59.0643 516.499 59.0868C516.147 59.0913 515.562 59.0877 515.562 59.0877C515.562 61.0885 515.562 62.8757 515.562 65.0632C517.021 65.0632 519.332 65.0632 521.334 65.0632C521.334 62.945 521.415 61.1438 521.421 59.2298H521.421C523.601 59.2298 525.78 59.2298 527.958 59.2298C527.958 57.0423 527.958 54.8547 527.958 53.3965C533.792 53.3965 538.896 53.3965 544 53.3965C549.278 53.3965 554.208 53.3965 560.042 53.3965C560.042 54.8547 560.042 57.0423 560.042 59.2298C562.221 59.2298 564.4 59.2298 566.579 59.2298C566.579 59.2298 566.579 59.2298 566.58 59.2298C566.585 61.1438 566.667 62.945 566.667 65.0632C568.668 65.0632 570.979 65.0632 572.438 65.0632C572.438 62.8757 572.438 61.0885 572.438 59.0877C572.438 59.0877 571.854 59.0913 571.501 59.0868C569.84 59.0649 568.265 59.0672 566.604 59.0431C566.604 56.914 566.604 54.7338 566.604 53.3965C568.792 53.3965 570.979 53.3965 573.167 53.3965C573.167 51.209 573.167 49.0214 573.167 46.834C575.354 46.834 576.813 46.834 579 46.834C579 38.8132 579 30.7923 579 22.7715C576.813 22.7715 574.625 22.7715 572.438 22.7715C572.437 27.1465 572.437 30.7924 572.437 35.1673ZM534.521 41.0008C534.521 42.1237 534.521 43.383 534.521 44.6466C532.333 44.6466 530.146 44.6466 527.958 44.6466C527.958 43.3831 527.958 42.1237 527.958 41.0008C527.958 40.2614 527.958 39.5242 527.958 38.8133C530.146 38.8133 532.333 38.8133 534.521 38.8133C534.521 39.5242 534.521 40.2614 534.521 41.0008ZM560.042 41.0008C560.042 42.1237 560.042 43.383 560.042 44.6466C557.854 44.6466 555.667 44.6466 553.479 44.6466C553.479 43.3831 553.479 42.1237 553.479 41.0008C553.479 40.2614 553.479 39.5242 553.479 38.8133C555.667 38.8133 557.854 38.8133 560.042 38.8133C560.042 39.5242 560.042 40.2614 560.042 41.0008Z" fill="#F2F2F2"/>
<path d="M521.396 16.9375C521.396 19.125 521.396 20.5833 521.396 22.7708C523.584 22.7708 525.771 22.7708 527.959 22.7708C527.959 20.5833 527.959 19.125 527.959 16.9375C525.771 16.9375 523.584 16.9375 521.396 16.9375Z" fill="#F2F2F2"/>
<path d="M521.332 59.0162C521.336 59.0162 521.342 59.0162 521.346 59.0162C521.346 59.0162 521.331 59.0052 521.332 59.0059C521.332 59.0088 521.332 59.0125 521.332 59.0162Z" fill="#F2F2F2"/>
</g>
<defs>
<clipPath id="clip0">
<rect width="70" height="70" fill="white" transform="translate(509 6)"/>
</clipPath>
</defs>
</svg>
